<svg xmlns="http://www.w3.org/2000/svg" viewBox="0 0 168 39.719"><defs><style>.a{fill:#0b5caa;}.b{fill:#fdb71d;}.c{fill:#ea2d30;}.d{fill:#1d252b;}</style></defs><g transform="translate(0.042)"><path class="a" d="M23.113,4.676,16.7,36.566a3.91,3.91,0,1,1-7.671-1.524l6.462-31.89a3.885,3.885,0,1,1,7.618,1.524" transform="translate(-4.272)"/><path class="a" d="M58.917,23.476,54.5,45.437a3.91,3.91,0,1,1-7.671-1.524l4.413-21.961A3.888,3.888,0,0,1,55.081,18.8a3.96,3.96,0,0,1,3.835,4.676" transform="translate(-22.212 -8.923)"/><path class="b" d="M73.686,64.393A3.993,3.993,0,1,1,69.693,60.4a3.991,3.991,0,0,1,3.993,3.993" transform="translate(-31.202 -28.667)"/><path class="c" d="M66.686,3.993A3.993,3.993,0,1,1,62.693,0a3.991,3.991,0,0,1,3.993,3.993" transform="translate(-27.88)"/><path class="c" d="M3.921,30.2H21.784a3.916,3.916,0,0,1,3.835,4.676l-.053.158a3.888,3.888,0,0,1-3.835,3.152H3.868A3.916,3.916,0,0,1,.033,33.51l.053-.158A3.888,3.888,0,0,1,3.921,30.2" transform="translate(0 -14.334)"/><path class="d" d="M99.351,59.782a1.89,1.89,0,0,1-.683,1.208,1.709,1.709,0,0,1-2.364,0,1.57,1.57,0,0,1-.315-1.208l1.734-12.136a1.947,1.947,0,0,1,.63-1.208,1.679,1.679,0,0,1,2.417,0,1.387,1.387,0,0,1,.315,1.208Z" transform="translate(-45.571 -21.797)"/><path class="d" d="M116.951,59.782a1.89,1.89,0,0,1-.683,1.208,1.709,1.709,0,0,1-2.364,0,1.57,1.57,0,0,1-.315-1.208l1.734-12.136a1.947,1.947,0,0,1,.63-1.208,1.679,1.679,0,0,1,2.417,0,1.387,1.387,0,0,1,.315,1.208Z" transform="translate(-53.924 -21.797)"/><path class="d" d="M104.6,57.453a1.418,1.418,0,0,1,1.156.525,1.761,1.761,0,0,1-.368,2.364,1.883,1.883,0,0,1-1.261.473H99.086a1.357,1.357,0,0,1-1.1-.473,1.766,1.766,0,0,1,.315-2.417,1.939,1.939,0,0,1,1.261-.525H104.6Z" transform="translate(-46.358 -27.243)"/><path class="d" d="M133.687,61.441h-7.881a1.357,1.357,0,0,1-1.1-.473,1.57,1.57,0,0,1-.315-1.208l1.681-11.926a1.823,1.823,0,0,1,.63-1.208,1.939,1.939,0,0,1,1.261-.525h7.881a1.431,1.431,0,0,1,1.1.473,1.5,1.5,0,0,1,.315,1.156,1.945,1.945,0,0,1-.63,1.156,1.851,1.851,0,0,1-1.208.473h-6.2l-.368,2.785h5.464a1.431,1.431,0,0,1,1.1.473,1.5,1.5,0,0,1,.315,1.156,1.775,1.775,0,0,1-.683,1.156,1.851,1.851,0,0,1-1.208.473h-5.464l-.368,2.785h6.147a1.431,1.431,0,0,1,1.1.473,1.5,1.5,0,0,1,.315,1.156,1.707,1.707,0,0,1-.63,1.156,2.1,2.1,0,0,1-1.261.473" transform="translate(-59.05 -21.88)"/><path class="d" d="M160.426,61.481a1.478,1.478,0,0,1-1.261-.683l-2.942-4.466-4.151,4.518a2.057,2.057,0,0,1-1.419.683,1.323,1.323,0,0,1-1.051-.473h0a1.447,1.447,0,0,1-.315-1.156,2.114,2.114,0,0,1,.473-1.051l4.886-5.1-3.415-5.044a1.479,1.479,0,0,1-.21-1.051,1.823,1.823,0,0,1,.63-1.208,1.878,1.878,0,0,1,2-.315,1.54,1.54,0,0,1,.525.473l2.89,4.466,4.151-4.518a1.749,1.749,0,0,1,2.469-.158A1.323,1.323,0,0,1,164,47.558a1.946,1.946,0,0,1-.42.946l-4.886,5.149,3.415,5.1a1.3,1.3,0,0,1,.21,1,1.706,1.706,0,0,1-.63,1.156,1.583,1.583,0,0,1-1.261.578" transform="translate(-70.868 -21.815)"/><path class="d" d="M188.735,61.451a1.771,1.771,0,0,1-.893-.263,1.474,1.474,0,0,1-.525-.736l-.736-2.627h-5.622L179.54,60.4a1.975,1.975,0,0,1-.736.736,1.637,1.637,0,0,1-2.1-.21h0a1.5,1.5,0,0,1-.315-1.156,2.251,2.251,0,0,1,.263-.683l6.672-11.874a2.615,2.615,0,0,1,.788-.893,2.138,2.138,0,0,1,1.261-.42h.21a1.731,1.731,0,0,1,1.156.42,2.622,2.622,0,0,1,.578.893l3.362,11.874a1.565,1.565,0,0,1,.053.683,1.707,1.707,0,0,1-.63,1.156,2.135,2.135,0,0,1-1.366.525m-5.989-6.83h2.942l-.946-3.52Z" transform="translate(-83.73 -21.785)"/><path class="d" d="M217.621,61.455a1.836,1.836,0,0,1-1.156-.42,1.623,1.623,0,0,1-.578-1.051l-1.313-7.618-3.468,7.618a2.467,2.467,0,0,1-.893,1.051,1.964,1.964,0,0,1-2.364,0,1.748,1.748,0,0,1-.578-1l-2.207-11.874a1.061,1.061,0,0,1,0-.578,2.09,2.09,0,0,1,.63-1.208,1.755,1.755,0,0,1,2.259-.105,1.359,1.359,0,0,1,.473.893l1.366,8.406,3.73-8.354a2.249,2.249,0,0,1,.788-.946,1.89,1.89,0,0,1,2.207,0,1.442,1.442,0,0,1,.525.946l1.366,8.354,3.73-8.406a2.052,2.052,0,0,1,.736-.893,1.739,1.739,0,0,1,2.259.105,1.369,1.369,0,0,1,.263,1.208,1.392,1.392,0,0,1-.158.525l-5.517,11.926a2.52,2.52,0,0,1-.893,1.051,2.044,2.044,0,0,1-1.208.368" transform="translate(-97.328 -21.789)"/><path class="d" d="M251.135,61.451a1.771,1.771,0,0,1-.893-.263,1.474,1.474,0,0,1-.525-.736l-.736-2.627h-5.622L241.94,60.4a1.975,1.975,0,0,1-.736.736,1.637,1.637,0,0,1-2.1-.21h0a1.5,1.5,0,0,1-.315-1.156,2.251,2.251,0,0,1,.263-.683l6.672-11.874a2.616,2.616,0,0,1,.788-.893,2.138,2.138,0,0,1,1.261-.42h.21a1.731,1.731,0,0,1,1.156.42,2.622,2.622,0,0,1,.578.893l3.362,11.874a1.565,1.565,0,0,1,.053.683,1.707,1.707,0,0,1-.63,1.156,2.135,2.135,0,0,1-1.366.525m-5.989-6.83h2.942l-.946-3.52Z" transform="translate(-113.346 -21.785)"/><path class="d" d="M282.752,67.764a1.478,1.478,0,0,1-1.261-.683L276.5,59.253l3.94-.053,3.94,5.884a1.469,1.469,0,0,1,.21,1,1.707,1.707,0,0,1-.63,1.156,1.453,1.453,0,0,1-1.208.525" transform="translate(-131.251 -28.098)"/><path class="d" d="M269.907,61.546a1.357,1.357,0,0,1-1.1-.473,1.57,1.57,0,0,1-.315-1.208l1.681-12.031a1.823,1.823,0,0,1,.63-1.208,1.939,1.939,0,0,1,1.261-.525h4.571a6.45,6.45,0,0,1,4.361,1.261,3.949,3.949,0,0,1,1.156,3.52c-.158,1.208-1.156,5.2-6.462,5.2h-3.257l-.525,3.783a1.89,1.89,0,0,1-.683,1.208,2.239,2.239,0,0,1-1.313.473m2.942-8.721h2.785a4.307,4.307,0,0,0,2.312-.525,1.791,1.791,0,0,0,.841-1.208,1.213,1.213,0,0,0-.368-1.156,3.926,3.926,0,0,0-2.364-.473h-2.679Z" transform="translate(-127.443 -21.88)"/><path class="d" d="M304.487,61.441h-7.881a1.357,1.357,0,0,1-1.1-.473,1.57,1.57,0,0,1-.315-1.208l1.681-11.926a2,2,0,0,1,1.891-1.734h7.881a1.431,1.431,0,0,1,1.1.473,1.5,1.5,0,0,1,.315,1.156,1.945,1.945,0,0,1-.63,1.156,1.851,1.851,0,0,1-1.208.473h-6.2l-.368,2.785h5.464a1.431,1.431,0,0,1,1.1.473,1.5,1.5,0,0,1,.315,1.156,1.775,1.775,0,0,1-.683,1.156,1.851,1.851,0,0,1-1.208.473h-5.464l-.368,2.785h6.2a1.431,1.431,0,0,1,1.1.473,1.5,1.5,0,0,1,.315,1.156,1.945,1.945,0,0,1-.63,1.156,2.123,2.123,0,0,1-1.313.473" transform="translate(-140.115 -21.88)"/></g></svg>